<svg width="14" height="13" viewBox="0 0 14 13" fill="none" xmlns="http://www.w3.org/2000/svg">
<g clip-path="url(#clip0_530_733)">
<path d="M12.4517 2.05075L10.4703 3.848V3.25C10.4703 1.45546 9.01484 0 7.2203 0C5.42575 0 3.9703 1.45546 3.9703 3.25V5.41667H2.3453V11.2163L1.26196 12.1983L1.99105 13L13.1786 2.85242L12.4517 2.05075ZM3.42863 10.2337V6.5H7.55884L3.42863 10.2337ZM9.38696 4.83058L8.74021 5.41667H5.05363V3.25C5.05363 2.05563 6.02592 1.08333 7.2203 1.08333C8.41467 1.08333 9.38696 2.05563 9.38696 3.25V4.83058ZM12.0953 5.41667V13H3.21684L4.41067 11.9167H11.012V6.5H10.375L11.5618 5.41667H12.0953Z" fill="white"/>
</g>
<defs>
<clipPath id="clip0_530_733">
<rect width="13" height="13" fill="white" transform="translate(0.720337)"/>
</clipPath>
</defs>
</svg>
